<svg id="Layer_1" enable-background="new 0 0 512 512" height="512" viewBox="0 0 512 512" width="512" xmlns="http://www.w3.org/2000/svg"><g><path d="m95.333 224.936c-52.567 0-95.333 42.766-95.333 95.333s42.766 95.333 95.333 95.333 95.333-42.767 95.333-95.333-42.766-95.333-95.333-95.333zm0 160.667c-36.025 0-65.333-29.309-65.333-65.334s29.308-65.333 65.333-65.333 65.333 29.309 65.333 65.333-29.308 65.334-65.333 65.334z" fill="#41495a"/><path d="m95.333 224.936v30c36.025 0 65.333 29.309 65.333 65.333s-29.309 65.333-65.333 65.333v30c52.567 0 95.333-42.767 95.333-95.333s-42.766-95.333-95.333-95.333z" fill="#141e32"/><path d="m191.74 222.806c-5.819 0-11.356-3.407-13.794-9.094l-27.546-64.267c-3.264-7.615.263-16.433 7.878-19.697 7.613-3.263 16.432.263 19.696 7.877l27.546 64.267c3.264 7.615-.263 16.433-7.877 19.697-1.927.826-3.931 1.217-5.903 1.217z" fill="#006e8c"/><path d="m416.667 224.936c-52.567 0-95.333 42.767-95.333 95.333s42.766 95.333 95.333 95.333 95.333-42.766 95.333-95.333-42.767-95.333-95.333-95.333zm0 160.667c-36.025 0-65.333-29.309-65.333-65.333s29.308-65.333 65.333-65.333 65.333 29.307 65.333 65.332-29.309 65.334-65.333 65.334z" fill="#41495a"/><path d="m364.8 157.589c-3.566-5.24-10.043-7.674-16.175-6.078l-160.667 41.773c-2.964.771-5.622 2.43-7.614 4.755l-96.4 112.467c-3.813 4.448-4.687 10.708-2.239 16.03s7.77 8.732 13.628 8.732h144.6c4.792 0 9.296-2.29 12.12-6.163l112.467-154.24c3.734-5.12 3.847-12.036.28-17.276zm-236.853 147.68 59.492-69.408 29.746 69.408zm115.392-15.131-30.946-72.209 103.155-26.821z" fill="#4bb4d2"/><path d="m207.8 158.536h-64.267c-8.284 0-15-6.716-15-15s6.716-15 15-15h64.267c8.284 0 15 6.716 15 15s-6.716 15-15 15z" fill="#f7785a"/><path d="m348.625 151.512-105.286 27.375v30.997l72.208-18.774-72.208 99.029v44.733c3.465-.809 6.573-2.829 8.714-5.764l112.467-154.24c3.734-5.121 3.847-12.037.28-17.277-3.566-5.242-10.043-7.676-16.175-6.079z" fill="#2691af"/><path d="m430.513 314.5-80.333-192.8c-3.186-7.647-11.969-11.263-19.615-8.077-7.647 3.187-11.263 11.968-8.077 19.615l80.333 192.8c3.186 7.647 11.969 11.263 19.615 8.077 7.647-3.186 11.263-11.968 8.077-19.615z" fill="#006e8c"/><path d="m398.763 106.659c-2.62-7.858-11.11-12.109-18.974-9.486l-48.2 16.065c-7.859 2.62-12.106 11.115-9.486 18.974 2.62 7.858 11.11 12.109 18.974 9.486l48.2-16.065c7.859-2.62 12.106-11.115 9.486-18.974z" fill="#2691af"/><path d="m416.667 224.936v30c36.025 0 65.333 29.309 65.333 65.333s-29.309 65.333-65.333 65.333v30c52.567 0 95.333-42.767 95.333-95.333s-42.767-95.333-95.333-95.333z" fill="#141e32"/></g></svg>