<svg id="Layer_1" enable-background="new 0 0 512 512" height="512" viewBox="0 0 512 512" width="512" xmlns="http://www.w3.org/2000/svg"><g id="XMLID_1910_"><g id="XMLID_2153_"><circle id="XMLID_11_" cx="256" cy="256" fill="#fff" r="246"/></g><g id="XMLID_1995_"><g id="XMLID_2141_"><g id="XMLID_2142_"><g id="XMLID_2152_"><circle id="XMLID_805_" cx="357.48" cy="264.337" fill="#8aa8bd" r="56.52"/></g><g id="XMLID_2151_"><circle id="XMLID_190_" cx="154.52" cy="264.337" fill="#8aa8bd" r="56.52"/></g></g></g></g><g id="XMLID_1706_"><path id="XMLID_188_" d="m256 502c135.862 0 246-110.138 246-246s-110.138-246-246-246-246 110.138-246 246 110.138 246 246 246zm198-246c0 109.178-88.822 198-198 198-45.959 0-88.308-15.742-121.946-42.113l277.832-277.832c26.372 33.637 42.114 75.987 42.114 121.945zm-198-198c45.959 0 88.308 15.742 121.946 42.113l-277.833 277.833c-26.371-33.638-42.113-75.988-42.113-121.946 0-109.178 88.822-198 198-198z" fill="#ff7d97"/></g><g id="XMLID_806_"><path id="XMLID_809_" d="m384.115 92.244c-36.919-28.945-81.22-44.244-128.115-44.244-114.691 0-208 93.309-208 208 0 46.894 15.299 91.195 44.243 128.116 1.766 2.252 4.411 3.64 7.268 3.812.202.012.402.018.604.018 2.644 0 5.189-1.048 7.07-2.929l277.832-277.832c2.023-2.023 3.083-4.817 2.91-7.673-.172-2.857-1.56-5.503-3.812-7.268zm-137.947 125.504-12.629-25.748h38.378zm-30.907-17.596 15.961 32.543-12.89 12.89c-3.118-10.593-8.801-20.093-16.336-27.78zm-66.748 72.18c1.801 1.353 3.909 2.006 6 2.006 3.037 0 6.037-1.378 8.002-3.993l27.273-36.294c6.716 7.808 10.884 17.858 11.218 28.861l-47.909 47.909c-24.995-.757-45.097-21.31-45.097-46.484 0-25.651 20.869-46.521 46.521-46.521 6.879 0 13.408 1.513 19.29 4.205l-27.284 36.309c-3.319 4.415-2.429 10.684 1.986 14.002zm166.513-123.442-3.254-7.025c-3.098-6.692-9.865-11.017-17.241-11.017h-17.979c-5.522 0-10 4.477-10 10s4.478 10 10 10h17.339l6.071 13.105-8.045 8.047h-68.187l-6.605-13.468c5.18-.376 9.269-4.687 9.269-9.963 0-5.523-4.478-10-10-10h-30.589c-5.522 0-10 4.477-10 10s4.478 10 10 10h9.061l10.516 21.439-19.356 25.758c-9.383-5.067-20.113-7.95-31.504-7.95-36.68 0-66.521 29.841-66.521 66.521 0 30.168 20.193 55.693 47.769 63.811l-34.512 34.512c-21.798-31.435-33.258-68.075-33.258-106.66 0-103.664 84.337-188 188-188 38.585 0 75.226 11.46 106.659 33.257z"/><path id="XMLID_813_" d="m437.02 74.98c-48.353-48.352-112.64-74.98-181.02-74.98-51.346 0-100.879 15.146-143.247 43.8-4.574 3.094-5.775 9.311-2.681 13.885 3.094 4.575 9.313 5.776 13.886 2.681 39.046-26.408 84.706-40.366 132.042-40.366 130.131 0 236 105.869 236 236s-105.869 236-236 236-236-105.869-236-236c0-48.858 14.795-95.731 42.786-135.553 3.177-4.518 2.088-10.755-2.43-13.932-4.52-3.176-10.756-2.087-13.932 2.431-30.37 43.207-46.424 94.057-46.424 147.054 0 68.38 26.629 132.667 74.98 181.02 48.353 48.352 112.64 74.98 181.02 74.98s132.667-26.628 181.02-74.981c48.351-48.352 74.98-112.639 74.98-181.019s-26.629-132.667-74.98-181.02z"/><path id="XMLID_816_" d="m124.073 412.489c.172 2.856 1.56 5.502 3.812 7.268 36.918 28.944 81.219 44.243 128.115 44.243 114.691 0 208-93.309 208-208 0-46.894-15.299-91.195-44.243-128.116-1.766-2.252-4.411-3.64-7.268-3.812-2.857-.171-5.649.887-7.674 2.911l-277.832 277.832c-2.023 2.024-3.083 4.817-2.91 7.674zm191.155-167.633 15.178-15.178 18 38.862c1.691 3.651 5.305 5.8 9.081 5.8 1.406 0 2.836-.298 4.196-.929 5.011-2.321 7.192-8.265 4.871-13.276l-19.098-41.232c3.265-.716 6.614-1.085 10.024-1.085 25.651 0 46.521 20.869 46.521 46.521s-20.869 46.52-46.521 46.52-46.521-20.869-46.521-46.52c0-6.81 1.44-13.362 4.269-19.483zm-24.091 24.091c2.377 34.535 31.214 61.911 66.343 61.911 36.68 0 66.521-29.841 66.521-66.52 0-35.129-27.376-63.965-61.911-66.343l48.655-48.655c21.795 31.435 33.255 68.075 33.255 106.66 0 103.664-84.337 188-188 188-38.586 0-75.227-11.46-106.659-33.257z"/><path id="XMLID_818_" d="m83.729 90.4c2.63 0 5.2-1.07 7.07-2.93 1.86-1.86 2.93-4.44 2.93-7.07 0-2.64-1.069-5.22-2.93-7.07-1.86-1.87-4.44-2.94-7.07-2.94s-5.21 1.07-7.069 2.94c-1.86 1.86-2.931 4.43-2.931 7.07 0 2.63 1.07 5.21 2.931 7.07 1.86 1.86 4.44 2.93 7.069 2.93z"/></g></g></svg>